<svg width="65" height="37" viewBox="0 0 65 37" fill="none" xmlns="http://www.w3.org/2000/svg">
<path fill-rule="evenodd" clip-rule="evenodd" d="M60.1959 0.148636C63.4189 0.538818 64.9524 3.92888 64.9296 8.40445L64.9456 8.39183C59.6572 12.6041 49.2426 15.4857 39.0107 10.0059L39.0214 9.99083C40.5295 10.7767 42.1232 11.3828 43.997 11.6096C46.2926 11.8876 48.1372 10.6437 49.8107 8.88205L49.9299 8.75535C49.9498 8.73409 49.9696 8.71276 49.9893 8.69137L50.1078 8.56218L50.2257 8.43144L50.3431 8.29922L50.46 8.1656C50.4794 8.14322 50.4988 8.12079 50.5182 8.0983L50.6345 7.96274L50.7503 7.826L50.891 7.65774C50.9144 7.62956 50.9378 7.60133 50.9611 7.57304L51.1359 7.35975L51.3099 7.14453L51.4486 6.97114L51.587 6.79683L51.725 6.62176L51.9314 6.35804L52.2857 5.90204L52.713 5.35051L52.9807 5.00681L53.1817 4.75082L53.3829 4.49688L53.5172 4.32895L53.6518 4.16228L53.7866 3.997L53.9218 3.83326L54.0573 3.67119L54.1659 3.54283L54.2748 3.4157L54.384 3.28987L54.4935 3.16541C54.5118 3.14478 54.5301 3.12422 54.5484 3.10372L54.6583 2.98145C54.6767 2.96119 54.6951 2.94101 54.7134 2.92089L54.824 2.80097C54.8793 2.74142 54.9348 2.68248 54.9904 2.62421L55.1019 2.50856C55.1578 2.45119 55.2138 2.3945 55.27 2.33854L55.3826 2.22761C56.8118 0.834974 58.356 -0.0741136 60.1959 0.148636Z" fill="#AEBFFF"/>
<path fill-rule="evenodd" clip-rule="evenodd" d="M26.446 26.6219L26.4571 26.6339C25.097 26.0009 23.6834 25.5235 22.11 25.333C20.4385 25.1306 18.9893 25.8169 17.6519 26.9418L17.5465 27.0315C17.4939 27.0768 17.4415 27.1227 17.3893 27.1693L17.2851 27.2634L17.1812 27.3591C17.0949 27.4395 17.009 27.5216 16.9234 27.6052L16.821 27.7063L16.7189 27.8088L16.6172 27.9127C16.6003 27.9301 16.5833 27.9476 16.5664 27.9652L16.4652 28.071C16.4484 28.0888 16.4316 28.1066 16.4147 28.1244L16.2949 28.2528C16.255 28.2959 16.2152 28.3393 16.1754 28.3829L16.0564 28.5145C16.0366 28.5366 16.0168 28.5587 15.997 28.5809L15.8785 28.7147L15.7604 28.85L15.6427 28.9865L15.5253 29.1242L15.4666 29.1935L15.3222 29.3657L15.2502 29.4523L15.1064 29.6267L15.0346 29.7144L14.8913 29.8906L14.7483 30.0679L14.5342 30.3353L14.2494 30.694L13.604 31.5112L13.3908 31.7801L13.1772 32.0476L13.0346 32.2249L12.8204 32.4888L12.6772 32.6633L12.5337 32.8364L12.3899 33.0079L12.2456 33.1776L12.1329 33.3088L12.0198 33.4387L11.9064 33.5673L11.7928 33.6946L11.6788 33.8204L11.5644 33.9448L11.4497 34.0675L11.3922 34.1282L11.2769 34.2485L11.1809 34.3469L11.0846 34.4441L10.988 34.54C10.9396 34.5876 10.8911 34.6347 10.8425 34.6813L10.745 34.7737L10.6473 34.8647C10.631 34.8797 10.6146 34.8947 10.5983 34.9096L10.5 34.9983C10.4343 35.0569 10.3684 35.1145 10.3023 35.171L10.2028 35.255C10.1862 35.2688 10.1696 35.2826 10.153 35.2963L10.0529 35.3777C8.79999 36.384 7.44987 36.9803 5.91107 36.794C2.71574 36.4072 1.11966 33.0844 1.03897 28.6748L0.945801 28.7594C7.05562 23.1301 17.4494 22.3815 26.446 26.6219Z" fill="#3358CC"/>
<path fill-rule="evenodd" clip-rule="evenodd" d="M41.312 33.1775C38.5596 32.8018 36.2974 31.9742 34.2869 30.9891L34.1049 30.8991C34.0444 30.869 33.9841 30.8387 33.9241 30.8083L33.7447 30.7167L33.5222 30.6013L33.3016 30.4848L33.1264 30.3909L32.909 30.2728L32.6934 30.1539L32.522 30.0584L32.3516 29.9624L32.0977 29.8179L31.7624 29.6243L31.4948 29.468L31.2291 29.3115L30.8338 29.0769L29.9238 28.5333L29.6662 28.3799L29.3453 28.19L29.0253 28.0024C28.1727 27.5056 27.3261 27.038 26.4577 26.6339L26.4467 26.6219C17.54 22.4239 7.26399 23.1156 1.131 28.592L1.0396 28.6747C0.848723 18.2394 9.14437 1.71769 24.8152 3.61484C27.5605 3.94719 29.7607 4.72514 31.6837 5.67385L31.8552 5.75926C31.9121 5.78788 31.9688 5.81664 32.0252 5.84554L32.1939 5.93264L32.2777 5.97649L32.4443 6.06474L32.6096 6.15372L32.7737 6.24336L32.8553 6.28842L33.058 6.40173L33.259 6.51589L33.4185 6.60778L33.577 6.70013L33.7345 6.79288L33.891 6.886L34.0467 6.97944L34.2015 7.07316L34.3555 7.16711L34.6062 7.32151L34.7309 7.39884L34.9788 7.55365L35.2252 7.70848L36.3188 8.40035L36.5597 8.55186L36.8001 8.70214L37.1004 8.88797L37.4007 9.0712C37.8993 9.37285 38.3996 9.6622 38.9091 9.93148L39.1006 10.0315C49.2077 15.4066 59.4629 12.651 64.7867 8.5175L64.9305 8.40446C64.8776 18.7867 56.4503 35.0102 41.312 33.1775Z" fill="#577FFB"/>
</svg>
