<svg width="245" height="61" viewBox="0 0 245 61" fill="none" xmlns="http://www.w3.org/2000/svg">
<path d="M119.169 1.15037V5.29777H113.63V22.402H108.539V5.29777H103V1.15037H119.169Z" fill="white"/>
<path d="M131.938 5.32804C133.844 5.32804 135.372 5.97386 136.524 7.26551C137.675 8.53697 138.251 10.2928 138.251 12.533V22.402H133.189V13.2293C133.189 12.0991 132.901 11.2212 132.325 10.5955C131.749 9.96989 130.975 9.65707 130.002 9.65707C129.03 9.65707 128.256 9.96989 127.68 10.5955C127.104 11.2212 126.816 12.0991 126.816 13.2293V22.402H121.724V0H126.816V7.78015C127.332 7.03342 128.037 6.43805 128.931 5.99404C129.824 5.55004 130.826 5.32804 131.938 5.32804Z" fill="white"/>
<path d="M157.452 13.6834C157.452 14.1677 157.422 14.6723 157.363 15.197H145.839C145.918 16.2465 146.246 17.0538 146.821 17.6189C147.417 18.1638 148.142 18.4362 148.995 18.4362C150.266 18.4362 151.149 17.8913 151.645 16.8015H157.065C156.787 17.9115 156.281 18.9105 155.546 19.7985C154.831 20.6865 153.928 21.3828 152.836 21.8873C151.745 22.3919 150.524 22.6442 149.174 22.6442C147.546 22.6442 146.097 22.291 144.826 21.5846C143.556 20.8782 142.563 19.8691 141.849 18.5573C141.134 17.2455 140.777 15.7117 140.777 13.9558C140.777 12.2 141.124 10.6662 141.819 9.35434C142.534 8.04251 143.526 7.03342 144.797 6.32705C146.067 5.62068 147.526 5.26749 149.174 5.26749C150.782 5.26749 152.211 5.61059 153.462 6.29677C154.712 6.98296 155.685 7.96179 156.38 9.23325C157.095 10.5047 157.452 11.9881 157.452 13.6834ZM152.241 12.3211C152.241 11.4331 151.943 10.7267 151.348 10.202C150.752 9.67725 150.008 9.41489 149.114 9.41489C148.261 9.41489 147.536 9.66716 146.941 10.1717C146.365 10.6763 146.008 11.3927 145.869 12.3211H152.241Z" fill="white"/>
<path d="M181.339 5.32804C183.404 5.32804 185.042 5.96377 186.253 7.23523C187.483 8.5067 188.099 10.2726 188.099 12.533V22.402H183.037V13.2293C183.037 12.1395 182.749 11.3019 182.173 10.7166C181.617 10.1112 180.843 9.80844 179.851 9.80844C178.858 9.80844 178.074 10.1112 177.498 10.7166C176.942 11.3019 176.664 12.1395 176.664 13.2293V22.402H171.602V13.2293C171.602 12.1395 171.314 11.3019 170.739 10.7166C170.183 10.1112 169.409 9.80844 168.416 9.80844C167.424 9.80844 166.639 10.1112 166.064 10.7166C165.508 11.3019 165.23 12.1395 165.23 13.2293V22.402H160.138V5.50968H165.23V7.62878C165.746 6.92241 166.421 6.36741 167.255 5.96377C168.089 5.53995 169.031 5.32804 170.084 5.32804C171.334 5.32804 172.446 5.6005 173.419 6.14541C174.411 6.69032 175.185 7.46733 175.741 8.47643C176.317 7.54806 177.101 6.79123 178.094 6.20596C179.086 5.62068 180.168 5.32804 181.339 5.32804Z" fill="white"/>
<path d="M207.323 13.6834C207.323 14.1677 207.293 14.6723 207.233 15.197H195.71C195.789 16.2465 196.117 17.0538 196.692 17.6189C197.288 18.1638 198.012 18.4362 198.866 18.4362C200.136 18.4362 201.02 17.8913 201.516 16.8015H206.936C206.658 17.9115 206.151 18.9105 205.417 19.7985C204.702 20.6865 203.799 21.3828 202.707 21.8873C201.615 22.3919 200.395 22.6442 199.045 22.6442C197.417 22.6442 195.968 22.291 194.697 21.5846C193.427 20.8782 192.434 19.8691 191.719 18.5573C191.005 17.2455 190.647 15.7117 190.647 13.9558C190.647 12.2 190.995 10.6662 191.69 9.35434C192.404 8.04251 193.397 7.03342 194.667 6.32705C195.938 5.62068 197.397 5.26749 199.045 5.26749C200.653 5.26749 202.082 5.61059 203.333 6.29677C204.583 6.98296 205.556 7.96179 206.251 9.23325C206.965 10.5047 207.323 11.9881 207.323 13.6834ZM202.112 12.3211C202.112 11.4331 201.814 10.7267 201.218 10.202C200.623 9.67725 199.878 9.41489 198.985 9.41489C198.131 9.41489 197.407 9.66716 196.811 10.1717C196.236 10.6763 195.878 11.3927 195.739 12.3211H202.112Z" fill="white"/>
<path d="M125.333 35.601C127.397 35.601 129.035 36.2367 130.246 37.5082C131.477 38.7797 132.092 40.5456 132.092 42.806V52.6749H127.03V43.5022C127.03 42.4124 126.742 41.5749 126.167 40.9896C125.611 40.3841 124.837 40.0814 123.844 40.0814C122.851 40.0814 122.067 40.3841 121.492 40.9896C120.936 41.5749 120.658 42.4124 120.658 43.5022V52.6749H115.596V43.5022C115.596 42.4124 115.308 41.5749 114.732 40.9896C114.176 40.3841 113.402 40.0814 112.41 40.0814C111.417 40.0814 110.633 40.3841 110.057 40.9896C109.501 41.5749 109.223 42.4124 109.223 43.5022V52.6749H104.132V35.7826H109.223V37.9017C109.74 37.1954 110.414 36.6404 111.248 36.2367C112.082 35.8129 113.025 35.601 114.077 35.601C115.328 35.601 116.439 35.8734 117.412 36.4184C118.405 36.9633 119.179 37.7403 119.735 38.7494C120.31 37.821 121.095 37.0642 122.087 36.4789C123.08 35.8936 124.162 35.601 125.333 35.601Z" fill="white"/>
<path d="M134.641 44.1985C134.641 42.4629 134.959 40.9391 135.594 39.6273C136.249 38.3155 137.132 37.3064 138.244 36.6C139.356 35.8936 140.596 35.5404 141.966 35.5404C143.137 35.5404 144.16 35.7826 145.033 36.267C145.926 36.7514 146.611 37.3871 147.088 38.1742V35.7826H152.18V52.6749H147.088V50.2834C146.591 51.0705 145.897 51.7062 145.003 52.1906C144.13 52.6749 143.108 52.9171 141.936 52.9171C140.586 52.9171 139.356 52.5639 138.244 51.8576C137.132 51.131 136.249 50.1118 135.594 48.8C134.959 47.468 134.641 45.9342 134.641 44.1985ZM147.088 44.2288C147.088 42.9371 146.73 41.9179 146.016 41.1712C145.321 40.4245 144.467 40.0511 143.455 40.0511C142.443 40.0511 141.579 40.4245 140.864 41.1712C140.17 41.8978 139.822 42.9069 139.822 44.1985C139.822 45.4902 140.17 46.5194 140.864 47.2863C141.579 48.0331 142.443 48.4064 143.455 48.4064C144.467 48.4064 145.321 48.0331 146.016 47.2863C146.73 46.5396 147.088 45.5204 147.088 44.2288Z" fill="white"/>
<path d="M165.988 35.601C167.933 35.601 169.481 36.2468 170.633 37.5385C171.804 38.8099 172.39 40.5658 172.39 42.806V52.6749H167.328V43.5022C167.328 42.372 167.04 41.4941 166.464 40.8685C165.888 40.2428 165.114 39.93 164.141 39.93C163.169 39.93 162.395 40.2428 161.819 40.8685C161.243 41.4941 160.955 42.372 160.955 43.5022V52.6749H155.863V35.7826H160.955V38.0228C161.471 37.2761 162.166 36.6908 163.04 36.267C163.913 35.823 164.896 35.601 165.988 35.601Z" fill="white"/>
<path d="M174.916 44.1985C174.916 42.4629 175.233 40.9391 175.869 39.6273C176.524 38.3155 177.407 37.3064 178.519 36.6C179.63 35.8936 180.871 35.5404 182.241 35.5404C183.412 35.5404 184.434 35.7826 185.308 36.267C186.201 36.7514 186.886 37.3871 187.362 38.1742V35.7826H192.454V52.6749H187.362V50.2834C186.866 51.0705 186.171 51.7062 185.278 52.1906C184.405 52.6749 183.382 52.9171 182.211 52.9171C180.861 52.9171 179.63 52.5639 178.519 51.8576C177.407 51.131 176.524 50.1118 175.869 48.8C175.233 47.468 174.916 45.9342 174.916 44.1985ZM187.362 44.2288C187.362 42.9371 187.005 41.9179 186.29 41.1712C185.596 40.4245 184.742 40.0511 183.73 40.0511C182.717 40.0511 181.854 40.4245 181.139 41.1712C180.444 41.8978 180.097 42.9069 180.097 44.1985C180.097 45.4902 180.444 46.5194 181.139 47.2863C181.854 48.0331 182.717 48.4064 183.73 48.4064C184.742 48.4064 185.596 48.0331 186.29 47.2863C187.005 46.5396 187.362 45.5204 187.362 44.2288Z" fill="white"/>
<path d="M202.451 35.5404C203.622 35.5404 204.644 35.7826 205.518 36.267C206.411 36.7514 207.096 37.3871 207.573 38.1742V35.7826H212.664V52.6447C212.664 54.1987 212.357 55.6013 211.741 56.8526C211.146 58.1241 210.223 59.1332 208.972 59.8799C207.741 60.6266 206.203 61 204.357 61C201.895 61 199.9 60.4046 198.371 59.2139C196.843 58.0433 195.969 56.449 195.751 54.4308H200.783C200.942 55.0766 201.319 55.5811 201.915 55.9444C202.51 56.3279 203.245 56.5196 204.118 56.5196C205.17 56.5196 206.004 56.2068 206.62 55.5811C207.255 54.9757 207.573 53.9969 207.573 52.6447V50.2531C207.076 51.0402 206.391 51.686 205.518 52.1906C204.644 52.6749 203.622 52.9171 202.451 52.9171C201.081 52.9171 199.84 52.5639 198.729 51.8576C197.617 51.131 196.734 50.1118 196.079 48.8C195.443 47.468 195.126 45.9342 195.126 44.1985C195.126 42.4629 195.443 40.9391 196.079 39.6273C196.734 38.3155 197.617 37.3064 198.729 36.6C199.84 35.8936 201.081 35.5404 202.451 35.5404ZM207.573 44.2288C207.573 42.9371 207.215 41.9179 206.501 41.1712C205.806 40.4245 204.952 40.0511 203.94 40.0511C202.927 40.0511 202.064 40.4245 201.349 41.1712C200.654 41.8978 200.307 42.9069 200.307 44.1985C200.307 45.4902 200.654 46.5194 201.349 47.2863C202.064 48.0331 202.927 48.4064 203.94 48.4064C204.952 48.4064 205.806 48.0331 206.501 47.2863C207.215 46.5396 207.573 45.5204 207.573 44.2288Z" fill="white"/>
<path d="M232.011 43.9563C232.011 44.4407 231.981 44.9452 231.922 45.47H220.398C220.477 46.5194 220.805 47.3267 221.38 47.8918C221.976 48.4367 222.701 48.7092 223.554 48.7092C224.825 48.7092 225.708 48.1643 226.204 47.0744H231.624C231.346 48.1844 230.84 49.1835 230.105 50.0715C229.391 50.9595 228.487 51.6557 227.395 52.1603C226.304 52.6648 225.083 52.9171 223.733 52.9171C222.105 52.9171 220.656 52.5639 219.385 51.8576C218.115 51.1512 217.122 50.1421 216.408 48.8303C215.693 47.5184 215.336 45.9846 215.336 44.2288C215.336 42.4729 215.683 40.9391 216.378 39.6273C217.093 38.3155 218.085 37.3064 219.356 36.6C220.626 35.8936 222.085 35.5404 223.733 35.5404C225.341 35.5404 226.77 35.8835 228.021 36.5697C229.271 37.2559 230.244 38.2347 230.939 39.5062C231.654 40.7777 232.011 42.261 232.011 43.9563ZM226.8 42.594C226.8 41.706 226.502 40.9997 225.907 40.4749C225.311 39.9502 224.567 39.6878 223.673 39.6878C222.82 39.6878 222.095 39.9401 221.5 40.4447C220.924 40.9492 220.567 41.6657 220.428 42.594H226.8Z" fill="white"/>
<path d="M239.789 38.598C240.385 37.6696 241.129 36.9431 242.022 36.4184C242.916 35.8734 243.908 35.601 245 35.601V41.0804H243.6C242.33 41.0804 241.377 41.3629 240.742 41.928C240.107 42.4729 239.789 43.4417 239.789 44.8342V52.6749H234.697V35.7826H239.789V38.598Z" fill="white"/>
<path fill-rule="evenodd" clip-rule="evenodd" d="M78.7174 3.18907C82.9321 3.6847 84.9374 7.991 84.9076 13.6762L84.9285 13.6602C78.0129 19.0109 64.3938 22.6713 51.0137 15.7104L51.0276 15.6913C52.9997 16.6896 55.0838 17.4595 57.5342 17.7476C60.5362 18.1007 62.9482 16.5206 65.1367 14.2829L65.2926 14.1219C65.3185 14.0949 65.3444 14.0678 65.3703 14.0406L65.5252 13.8765L65.6793 13.7105L65.8328 13.5425L65.9857 13.3728C66.0112 13.3444 66.0366 13.3159 66.0619 13.2873L66.2139 13.1151L66.3654 12.9414L66.5494 12.7277C66.58 12.6919 66.6106 12.656 66.6411 12.6201L66.8696 12.3491L67.0972 12.0757L67.2786 11.8555L67.4595 11.6341L67.64 11.4117L67.9099 11.0767L68.3732 10.4974L68.9321 9.79686L69.2821 9.36026L69.5449 9.03508L69.808 8.71251L69.9837 8.4992L70.1597 8.28748L70.336 8.07753L70.5127 7.86954L70.6899 7.66366L70.832 7.50061L70.9744 7.33912L71.1172 7.17928L71.2603 7.02119C71.2842 6.99499 71.3082 6.96886 71.3321 6.94282L71.4759 6.7875C71.4999 6.76178 71.5239 6.73614 71.548 6.71058L71.6925 6.55825C71.7649 6.4826 71.8374 6.40774 71.9102 6.33372L72.056 6.18681C72.129 6.11393 72.2023 6.04193 72.2757 5.97084L72.423 5.82992C74.292 4.0609 76.3113 2.90612 78.7174 3.18907Z" fill="white" fill-opacity="0.6"/>
<path fill-rule="evenodd" clip-rule="evenodd" d="M34.583 36.8173L34.5974 36.8325C32.8188 36.0285 30.9704 35.422 28.9128 35.18C26.727 34.923 24.8319 35.7948 23.083 37.2236L22.9452 37.3376C22.8764 37.3951 22.8079 37.4535 22.7396 37.5127L22.6033 37.6322L22.4675 37.7537C22.3546 37.8559 22.2422 37.9602 22.1304 38.0664L21.9964 38.1948L21.8629 38.325L21.7299 38.457C21.7078 38.4791 21.6857 38.5013 21.6636 38.5236L21.5312 38.6581C21.5092 38.6806 21.4872 38.7032 21.4652 38.7259L21.3084 38.889C21.2563 38.9437 21.2042 38.9988 21.1522 39.0542L20.9966 39.2214C20.9707 39.2495 20.9448 39.2776 20.9189 39.3058L20.764 39.4758L20.6096 39.6475L20.4556 39.8209L20.302 39.9959L20.2254 40.0839L20.0365 40.3026L19.9423 40.4127L19.7543 40.6343L19.6604 40.7456L19.473 40.9695L19.286 41.1946L19.006 41.5343L18.6336 41.99L17.7897 43.028L17.5108 43.3696L17.2315 43.7094L17.0451 43.9346L16.7649 44.2699L16.5776 44.4915L16.39 44.7114L16.2019 44.9292L16.0133 45.1449L15.8658 45.3114L15.718 45.4765L15.5697 45.6399L15.4211 45.8015L15.272 45.9614L15.1225 46.1193L14.9725 46.2752L14.8973 46.3524L14.7465 46.5051L14.6209 46.6302L14.495 46.7536L14.3687 46.8754C14.3054 46.9359 14.242 46.9957 14.1784 47.0549L14.051 47.1723L13.9231 47.2878C13.9018 47.3069 13.8804 47.326 13.859 47.3449L13.7305 47.4576C13.6446 47.5321 13.5585 47.6053 13.472 47.677L13.3419 47.7836C13.3202 47.8012 13.2985 47.8187 13.2767 47.8361L13.1459 47.9395C11.5074 49.2178 9.74189 49.9753 7.72962 49.7386C3.5511 49.2472 1.46392 45.0264 1.35841 39.425L1.23657 39.5326C9.22634 32.3818 22.8182 31.4309 34.583 36.8173Z" fill="white" fill-opacity="0.8"/>
<path fill-rule="evenodd" clip-rule="evenodd" d="M54.0233 45.1456C50.424 44.6683 47.4658 43.617 44.8367 42.3657L44.5986 42.2514C44.5195 42.2131 44.4408 42.1747 44.3623 42.1361L44.1276 42.0197L43.8367 41.8731L43.5482 41.7251L43.3191 41.6058L43.0349 41.4558L42.7528 41.3048L42.5287 41.1834L42.3059 41.0615L41.9739 40.8779L41.5354 40.6321L41.1854 40.4335L40.838 40.2347L40.3211 39.9366L39.1311 39.2462L38.7943 39.0513L38.3746 38.8101L37.9561 38.5718C36.8412 37.9407 35.7341 37.3468 34.5985 36.8334L34.5841 36.8182C22.9369 31.4856 9.49902 32.3643 1.47896 39.3208L1.35944 39.4258C1.10983 26.1702 11.958 5.1831 32.4506 7.593C36.0406 8.01517 38.9178 9.00338 41.4325 10.2085L41.6568 10.317C41.7312 10.3533 41.8053 10.3899 41.8791 10.4266L42.0996 10.5372L42.2092 10.5929L42.4271 10.705L42.6433 10.8181L42.8579 10.9319L42.9646 10.9892L43.2297 11.1331L43.4924 11.2781L43.7011 11.3948L43.9083 11.5121L44.1143 11.63L44.319 11.7483L44.5226 11.8669L44.725 11.986L44.9263 12.1053L45.2542 12.3015L45.4172 12.3997L45.7415 12.5963L46.0637 12.793L47.4938 13.6719L47.8087 13.8643L48.1232 14.0552L48.5158 14.2913L48.9086 14.524C49.5605 14.9072 50.2148 15.2748 50.8811 15.6168L51.1316 15.7439C64.3486 22.5717 77.7592 19.0713 84.721 13.8207L84.909 13.6771C84.84 26.8653 73.8196 47.4736 54.0233 45.1456Z" fill="white"/>
</svg>
